# xmcd
#
# Track frame offsets:
#	150
#	11114
#	21376
#	37401
#	55142
#	77656
#	90145
#	109493
#	124976
#	140323
#	165978
#	182381
#	212849
#
# Disc length: 3168 seconds
#
# Revision: 0
# Processed by: cddbd v1.4PL0 Copyright (c) Steve Scherf et al.
# Submitted via: dBpowerAMP V4.0
#
DISCID=ab0c5e0d
DTITLE=Love Classics - Love Classics
DYEAR=1900
DGENRE=Ballad
TTITLE0=Jim Croce - Time in a bottle
TTITLE1=Louis Armstrong - What a wonderful world
TTITLE2=The Righteous Brothers - Unchained melody
TTITLE3=Rupert Holmes - Him
TTITLE4=The Chi-Lites - Have you seen her
TTITLE5=Percy Sledge - When a man loves a woman
TTITLE6=Sneaker - More than just the two of us
TTITLE7=10 CC - I'm not in love
TTITLE8=Demis Roussos - Rains and tears
TTITLE9=Peaches and Herb - Reunited
TTITLE10=F.R.O. Feat. Bobby Kimball - I'll be over you
TTITLE11=The Marmalade - Reflections of my life
TTITLE12=DATA
EXTD=Love classics
EXTT0=
EXTT1=
EXTT2=
EXTT3=
EXTT4=
EXTT5=
EXTT6=
EXTT7=
EXTT8=
EXTT9=
EXTT10=
EXTT11=
EXTT12=
PLAYORDER=
